<svg id="splash_logo" width="275" height="180" viewBox="0 0 275 180" fill="none" xmlns="http://www.w3.org/2000/svg">
      <path d="M73.8617 27.833L43.269 7.2575L50.9709 0L73.8617 27.833Z" fill="#FFBB00"></path>
      <path d="M228.292 144.207L247.268 173.859L252.361 171.801L228.292 144.207Z" fill="#FFBB00"></path>
      <path d="M55.9222 149.823L39.5664 172.433L45.5151 175.9L55.9222 149.823Z" fill="#FFBB00"></path>
      <path d="M218.622 14.2761L202.813 32.5513L231.607 14.2761H218.622Z" fill="#FFBB00"></path>
      <path d="M77.888 32.4336L36.6917 26.098L52.9327 68.8752L3.4209 77.5896L31.5441 102.896L8.96755 150.077L59.2713 144.134L73.5414 177L90.3657 140.967L132.946 167.107L153.147 143.738L166.613 156.412L174.932 141.758L218.199 177L227.215 133.836L271.579 138.987L242.933 109.213L268.514 71.8465L232.366 73.6299L237.517 26.098L197.508 36.7923L194.34 12.6289L160.275 31.6416L147.996 12.6289L127.004 34.4165L94.126 7.8772L77.888 32.4336Z" fill="#FFBB00"></path>
      <path fill-rule="evenodd" clip-rule="evenodd" d="M77.8882 32.4334L94.1261 7.87702L127.004 34.4163L147.997 12.6287L160.275 31.6415L194.341 12.6287L197.508 36.7921L237.517 26.0978L232.366 73.6297L268.515 71.8463L242.933 109.213L271.58 138.986L227.215 133.836L218.199 177L174.932 141.758L166.613 156.412L153.147 143.738L132.947 167.107L90.3659 140.966L73.5416 177L59.2714 144.134L8.9677 150.077L31.5442 102.896L3.42105 77.5895L52.9328 68.875L36.6919 26.0978L77.8882 32.4334ZM51.2836 67.9376L34.8251 24.5875L77.3067 31.1207L93.851 6.10107L126.902 32.7799L148.185 10.6911L160.675 30.0332L195.308 10.7043L198.528 35.2681L238.909 24.4742L233.721 72.3524L270.889 70.5187L244.487 109.084L274.787 140.576L228.173 135.164L218.976 179.192L175.277 143.599L166.905 158.347L153.237 145.483L133.19 168.674L90.8882 142.706L73.5015 179.944L58.5204 145.44L6.92954 151.535L30.0632 103.189L0.768066 76.8287L51.2836 67.9376Z" fill="black"></path>
      <path d="M131.314 51.9994L139.581 11.595L135.482 11.8307L127.215 52.2321L131.314 51.9994Z" fill="#E8EAED"></path>
      <path d="M123.267 32.3911L122.207 13.8801L103.324 14.9622L105.446 51.9842L124.328 50.9021L123.267 32.3911Z" fill="#E8EAED"></path>
      <path d="M176.192 29.3565C176.086 27.5277 175.72 25.7746 175.131 24.1363C174.835 23.3171 174.484 22.5222 174.082 21.7635C172.61 18.9765 170.449 16.6218 167.84 14.908C167.662 14.7901 167.483 14.6782 167.299 14.5664C166.752 14.2339 166.19 13.9286 165.609 13.6536C164.836 13.2878 164.035 12.9734 163.209 12.7135C162.659 12.5412 162.097 12.3931 161.529 12.2752C160.957 12.1543 160.38 12.0606 159.794 11.9941C159.207 11.9276 158.612 11.8883 158.01 11.8792C157.781 11.8762 157.548 11.8762 157.315 11.8792C157.082 11.8853 156.85 11.8944 156.617 11.9065C155.659 11.9609 154.722 12.0878 153.809 12.2813C153.503 12.3447 153.204 12.4173 152.905 12.4959C152.309 12.653 151.726 12.8404 151.158 13.0551C150.874 13.1608 150.593 13.2757 150.315 13.3966C149.758 13.6354 149.217 13.9044 148.694 14.1946C148.171 14.4848 147.661 14.8022 147.171 15.1407C146.926 15.31 146.684 15.4853 146.448 15.6667C145.502 16.3891 144.629 17.1992 143.84 18.0848C143.444 18.5261 143.072 18.9886 142.721 19.4692C142.196 20.1886 141.718 20.9443 141.298 21.7332C141.017 22.2592 140.763 22.8002 140.533 23.3564C140.303 23.9096 140.101 24.4778 139.925 25.0582C139.663 25.9257 139.463 26.8204 139.33 27.7363C139.152 28.9545 139.094 30.2089 139.167 31.4875C139.254 33.0109 139.523 34.4829 139.953 35.8794C140.294 36.9978 140.742 38.0679 141.277 39.0805C141.546 39.5883 141.836 40.081 142.147 40.5556C145.421 45.5642 151.037 48.8559 157.345 48.9617C157.808 48.9707 158.273 48.9617 158.739 48.9345C168.962 48.3481 176.775 39.5883 176.189 29.3625L176.192 29.3565Z" fill="#E8EAED"></path>
      <path d="M98.9589 56.6091L118.697 55.4786L118.691 55.3788L118.927 55.3667L118.921 55.267L119.157 55.2549L119.151 55.1551L119.386 55.143L119.38 55.0433L119.616 55.0312L119.61 54.9314L119.846 54.9193L119.84 54.8196L120.075 54.8075L120.069 54.7078L120.305 54.6957L120.299 54.5959L120.535 54.5838L120.529 54.4841L120.765 54.472L120.759 54.3723L120.994 54.3602L120.988 54.2604L121.224 54.2483L121.218 54.1486L121.454 54.1365L121.448 54.0367L121.684 54.0246L121.678 53.9249L121.913 53.9128L121.907 53.8131L122.143 53.801L122.137 53.7012L122.373 53.6891L122.367 53.5894L122.602 53.5773L122.596 53.4776L122.832 53.4654L122.826 53.3657L123.062 53.3536L123.056 53.2538L123.292 53.2418L123.286 53.142L123.521 53.1299L123.515 53.0302L123.751 53.0181L123.745 52.9183L123.981 52.9063L123.975 52.8065L124.211 52.7944L124.204 52.6946L124.44 52.6826L124.434 52.5828L124.67 52.5707L124.649 52.1869L124.779 52.1808L124.117 55.929L128.4 55.6841L128.415 55.5934L128.551 55.5844L128.566 55.4937L128.702 55.4846L128.717 55.3939L128.853 55.3849L128.868 55.2942L129.005 55.2851L129.02 55.1944L129.156 55.1853L129.171 55.0947L129.307 55.0856L129.322 54.9949L129.458 54.9859L129.473 54.8952L129.609 54.8861L129.624 54.7954L129.76 54.7864L129.775 54.6957L129.911 54.6866L129.926 54.5959L130.062 54.5869L130.078 54.4962L130.214 54.4871L130.229 54.3964L130.365 54.3873L130.38 54.2967L130.516 54.2876L130.531 54.1969L130.667 54.1879L130.682 54.0972L130.818 54.0881L130.833 53.9974L130.969 53.9884L130.984 53.8977L131.12 53.8886L131.136 53.7979L131.272 53.7889L131.287 53.6982L131.423 53.6891L131.438 53.5984L131.574 53.5894L131.589 53.4987L131.725 53.4896L131.74 53.399L131.876 53.3899L131.891 53.2992L132.027 53.2901L132.042 53.1994L132.178 53.1904L132.193 53.0997L132.329 53.0906L132.429 52.5193C132.462 52.4438 132.49 52.3652 132.508 52.2836L135.047 39.8694C137.625 48.1697 145.59 53.9732 154.661 53.4533C157.104 53.3143 159.516 52.7128 161.731 51.679C164.37 50.4488 166.519 48.3994 168.886 46.7671C169.672 46.2261 170.418 45.6276 171.114 44.9807C175.3 41.1026 177.791 35.4532 177.437 29.3262C177.401 28.6975 177.337 28.0778 177.244 27.4612C177.105 26.5393 176.899 25.6325 176.633 24.7468C176.455 24.1574 176.252 23.577 176.02 23.0057C175.672 22.1503 175.267 21.3221 174.804 20.5241C174.496 19.9921 174.161 19.4752 173.804 18.9704C173.088 17.9639 172.271 17.0208 171.362 16.1533C170.515 15.3432 169.605 14.6147 168.647 13.9769C168.327 13.7623 168.003 13.5598 167.671 13.3664C166.35 12.5925 164.944 11.9759 163.484 11.5286C163.191 11.4379 162.898 11.3563 162.602 11.2807C161.417 10.9784 160.199 10.782 158.962 10.7034C158.654 10.6822 158.343 10.6701 158.031 10.6671L158.022 11.2928V11.4832L158.013 11.9185L158.019 11.4832L158.022 11.2928L158.031 10.6671C157.539 10.658 157.04 10.6671 156.544 10.6973C154.159 10.8333 151.898 11.3895 149.825 12.2873C148.344 12.9281 146.959 13.7442 145.696 14.7084C143.199 16.6127 140.82 19.1639 138.792 21.5548L140.781 11.8369C140.857 11.4651 140.757 11.0782 140.509 10.794C140.282 10.5311 139.953 10.3769 139.605 10.3708C139.575 10.3708 139.545 10.3708 139.514 10.3708L135.416 10.6066C134.651 11.2142 131.55 13.3724 131.544 13.7412L125.429 48.3238L123.452 13.847L123.379 12.5956C123.379 12.5956 122.131 12.6681 122.128 12.6681L103.242 13.7502L101.994 13.8228C100.996 14.6057 97.901 16.9513 96.7463 17.976C96.6224 18.0364 96.846 19.9226 96.8551 20.0919C96.9156 21.1286 96.973 22.1654 97.0335 23.2022C97.2027 26.1433 97.372 29.0874 97.5382 32.0285C97.7317 35.4169 97.9252 38.8023 98.1216 42.1908C98.2909 45.1651 98.4632 48.1395 98.6325 51.1138C98.7292 52.8186 98.8289 54.5234 98.9257 56.2282C98.9347 56.3672 98.9408 56.5063 98.9499 56.6423L98.9589 56.6091ZM159.797 11.9971C160.383 12.0636 160.963 12.1573 161.532 12.2782C162.103 12.3991 162.662 12.5472 163.212 12.7165C164.038 12.9734 164.839 13.2877 165.612 13.6565C166.193 13.9316 166.755 14.2369 167.302 14.5694C167.483 14.6812 167.665 14.7931 167.843 14.9109C170.452 16.6218 172.61 18.9795 174.085 21.7664C174.487 22.5282 174.838 23.3201 175.134 24.1392C175.723 25.7806 176.089 27.5307 176.195 29.3594C176.781 39.5852 168.968 48.345 158.745 48.9314C158.276 48.9586 157.811 48.9677 157.351 48.9586C151.04 48.8528 145.427 45.5611 142.153 40.5525C141.842 40.0749 141.552 39.5822 141.283 39.0774C140.748 38.0648 140.303 36.9917 139.959 35.8764C139.53 34.4799 139.261 33.0079 139.173 31.4844C139.1 30.2058 139.158 28.9514 139.336 27.7332C139.469 26.8204 139.669 25.9257 139.932 25.0551C140.107 24.4748 140.309 23.9095 140.539 23.3534C140.769 22.8002 141.023 22.2561 141.304 21.7302C141.724 20.9412 142.199 20.1825 142.728 19.4662C143.078 18.9886 143.453 18.5261 143.846 18.0818C144.635 17.1961 145.508 16.386 146.455 15.6636C146.69 15.4822 146.932 15.3069 147.177 15.1376C147.667 14.7991 148.177 14.4847 148.7 14.1915C149.223 13.8983 149.764 13.6354 150.321 13.3935C150.599 13.2726 150.88 13.1608 151.164 13.052C151.732 12.8374 152.316 12.653 152.911 12.4928C153.21 12.4142 153.51 12.3417 153.815 12.2782C154.725 12.0847 155.665 11.9578 156.623 11.9034C156.856 11.8913 157.088 11.8822 157.321 11.8762C157.554 11.8701 157.784 11.8701 158.016 11.8762C158.618 11.8853 159.213 11.9245 159.8 11.991L159.797 11.9971ZM123.27 32.3942L124.331 50.9052L105.446 51.9873L103.324 14.9654L122.209 13.8832L123.27 32.3942ZM135.485 11.8339L135.494 11.7915L139.593 11.5558L139.584 11.5981L131.317 51.9994L127.218 52.2352L135.485 11.8339Z" fill="#202124"></path>
      <path d="M225.386 103.198C225.423 103.4 225.595 103.551 225.8 103.557C227.868 103.639 237.217 103.494 237.746 103.503C238.248 103.512 243.036 101.164 244.336 100.725C244.42 100.698 244.496 100.671 244.568 100.65C244.58 100.647 244.595 100.641 244.605 100.638C244.647 100.625 244.686 100.604 244.719 100.58C244.728 100.574 244.738 100.571 244.747 100.565C245.206 100.311 245.52 99.8275 245.517 99.2653L245.354 58.9334C245.351 58.1324 244.698 57.4704 243.897 57.4553C243.891 57.4553 243.873 57.4553 243.867 57.4553L224.751 57.5309C224.464 57.5309 224.186 57.6186 223.954 57.7697C223.872 57.7939 223.799 57.8362 223.742 57.9027L218.074 62.9567C217.987 63.0564 217.95 63.1924 217.975 63.3224L225.386 103.192V103.198ZM243.882 58.4316C244.16 58.4377 244.384 58.6614 244.387 58.9425L244.538 96.9469L244.547 99.2713C244.547 99.5555 244.32 99.7852 244.036 99.7852L232.072 99.8335C232.072 99.8335 232.066 99.8335 232.06 99.8335C231.816 99.8305 231.61 99.6522 231.565 99.4134L224.253 59.1118C224.195 58.7974 224.437 58.5102 224.755 58.5072L227.838 58.4951L243.87 58.4316C243.87 58.4316 243.876 58.4316 243.882 58.4316Z" fill="#202124"></path>
      <path d="M247.663 117.661L240.896 109.92L238.115 106.71C238.069 106.659 238.018 106.616 237.967 106.571L237.153 105.643C236.993 105.459 236.706 105.456 236.54 105.634L231.806 109.134C231.782 109.159 231.764 109.189 231.746 109.219L224.878 121.929C224.724 122.211 224.942 122.552 225.262 122.537L242.099 121.379C242.192 121.373 242.283 121.337 242.352 121.274L247.624 118.242C247.793 118.091 247.808 117.834 247.66 117.664L247.663 117.661ZM231.83 117.828L236.815 107.424C236.875 107.294 237.002 107.227 237.129 107.23C237.22 107.23 237.314 107.269 237.38 107.348L245.454 116.673C245.638 116.885 245.502 117.214 245.224 117.235L232.166 118.317C232.166 118.317 232.142 118.317 232.13 118.317C231.885 118.314 231.722 118.054 231.83 117.828Z" fill="#202124"></path>
      <path d="M244.544 99.2713L244.535 96.9468L244.384 58.9425C244.384 58.6644 244.157 58.4377 243.879 58.4316C243.876 58.4316 243.873 58.4316 243.867 58.4316L227.835 58.4951L224.751 58.5072C224.434 58.5072 224.192 58.7974 224.25 59.1117L231.562 99.4134C231.604 99.6552 231.812 99.8305 232.057 99.8335C232.06 99.8335 232.063 99.8335 232.069 99.8335L244.033 99.7852C244.317 99.7852 244.544 99.5524 244.544 99.2713Z" fill="#FF5145"></path>
      <path d="M245.454 116.67L237.38 107.345C237.314 107.266 237.22 107.23 237.129 107.227C237.002 107.227 236.875 107.294 236.815 107.421L231.83 117.825C231.722 118.051 231.888 118.308 232.13 118.314C232.142 118.314 232.154 118.314 232.166 118.314L245.224 117.232C245.502 117.208 245.638 116.879 245.454 116.67Z" fill="#FF5145"></path>
      <path d="M139.648 125.678L134.594 65.8645L154.936 64.1445L159.99 123.958L139.648 125.678Z" fill="#428EFF"></path>
      <path d="M160.516 123.915L155.462 64.1022C155.438 63.812 155.184 63.6004 154.894 63.6216L134.551 65.3415C134.397 65.3536 134.267 65.4322 134.18 65.544L128.403 70.6705L133.098 131.257L153.685 129.661L160.299 124.384C160.299 124.384 160.32 124.369 160.329 124.36L160.341 124.351C160.359 124.335 160.377 124.32 160.393 124.302C160.483 124.196 160.526 124.057 160.513 123.918L160.516 123.915ZM154.459 64.7158L159.422 123.48L140.128 125.109L135.165 66.345L154.459 64.7158Z" fill="#202124"></path>
      <path d="M171.28 122.347L166.226 62.5334L196.916 59.9399C200.915 59.6014 204.152 59.7526 206.63 60.3904C209.106 61.0281 211.056 62.1616 212.476 63.7939C213.897 65.4261 214.937 67.5269 215.593 70.0962C216.249 72.6685 216.723 75.7214 217.022 79.258C217.292 82.4469 217.346 85.3306 217.186 87.912C217.022 90.4964 216.412 92.7483 215.351 94.6768C214.287 96.6053 212.564 98.1529 210.182 99.3166C207.797 100.48 204.551 101.236 200.434 101.584L190.087 102.457L191.623 120.627L171.28 122.347ZM188.89 88.2868L191.587 88.0601C192.862 87.9513 193.857 87.8123 194.57 87.6339C195.283 87.4586 195.812 87.1352 196.154 86.6697C196.492 86.2042 196.683 85.5301 196.728 84.6505C196.77 83.7709 196.728 82.5497 196.592 80.984C196.459 79.4182 196.296 78.1789 196.102 77.26C195.906 76.3441 195.604 75.6973 195.196 75.3224C194.785 74.9507 194.21 74.736 193.476 74.6786C192.741 74.6242 191.738 74.6514 190.462 74.7572L187.766 74.9839L188.89 88.2868Z" fill="#428EFF"></path>
      <path d="M217.549 79.2126C217.249 75.664 216.763 72.5536 216.104 69.9662C215.43 67.3274 214.345 65.1329 212.875 63.4463C211.388 61.7415 209.333 60.5414 206.761 59.8795C204.237 59.2296 200.909 59.0754 196.873 59.417L166.184 62.0105C166.054 62.0226 165.942 62.08 165.857 62.1646L160.018 67.3485L164.712 127.935L185.318 126.339L191.868 121.095C191.928 121.065 191.98 121.023 192.025 120.968C192.116 120.862 192.158 120.723 192.146 120.584L191.07 107.862C196.103 107.559 201.156 107.284 205.694 104.869C208.266 103.503 210.512 101.614 212.455 99.4587C213.852 97.911 215.115 96.2334 216.07 94.3775C217.092 92.3916 217.567 90.1608 217.703 87.9422C217.866 85.3457 217.812 82.4076 217.539 79.2096L217.549 79.2126ZM216.66 87.8787C216.503 90.3724 215.907 92.573 214.889 94.4228C214.405 95.2994 213.767 96.0974 212.984 96.8138L211.824 97.7387C211.252 98.1377 210.633 98.5095 209.953 98.842C207.64 99.9725 204.421 100.719 200.392 101.058L190.045 101.931C189.906 101.943 189.776 102.01 189.688 102.116C189.598 102.221 189.555 102.36 189.567 102.499L191.058 120.146L171.764 121.775L166.801 63.011L196.964 60.4629C200.881 60.1304 204.092 60.2785 206.501 60.8981C208.861 61.5057 210.738 62.5969 212.084 64.1354C213.444 65.6981 214.453 67.7445 215.085 70.2231C215.729 72.7531 216.206 75.806 216.5 79.2973C216.766 82.4439 216.82 85.3306 216.66 87.8757V87.8787Z" fill="#202124"></path>
      <path d="M196.617 77.1481C196.396 76.1114 196.045 75.3859 195.547 74.9295C195.048 74.4791 194.365 74.2161 193.512 74.1526C192.751 74.0982 191.711 74.1224 190.417 74.2312L187.721 74.4579C187.431 74.4821 187.216 74.736 187.24 75.0262L188.365 88.3291C188.377 88.4681 188.443 88.5981 188.549 88.6858C188.643 88.7644 188.761 88.8067 188.878 88.8097C188.897 88.8097 188.915 88.8097 188.933 88.8097L191.629 88.583C192.95 88.4711 193.954 88.3261 194.694 88.1417C195.528 87.9361 196.16 87.5432 196.577 86.9749C196.982 86.4188 197.203 85.6661 197.251 84.6716C197.294 83.7679 197.251 82.5134 197.115 80.9356C196.982 79.3608 196.813 78.0852 196.617 77.1451V77.1481ZM189.371 87.7185L188.588 78.4539C188.909 78.4539 189.199 78.463 189.453 78.4812C190.302 78.5446 190.988 78.8076 191.487 79.258C191.986 79.7144 192.336 80.4398 192.557 81.4766C192.757 82.4137 192.923 83.6893 193.056 85.2671C193.122 86.0439 193.165 86.7392 193.189 87.3558H193.183C193.065 87.3739 192.944 87.3891 192.817 87.4042C192.56 87.4374 192.288 87.4646 191.998 87.4948C191.853 87.5099 191.702 87.522 191.547 87.5341L189.377 87.7185H189.371Z" fill="#202124"></path>
      <path d="M89.6736 129.831L84.6196 70.0177L104.962 68.2977L108.723 112.81L128.718 111.12L130.011 126.421L89.6706 129.828L89.6736 129.831Z" fill="#428EFF"></path>
      <path d="M130.537 126.379L129.244 111.078C129.22 110.788 128.966 110.576 128.675 110.597L109.203 112.242L105.488 68.2524C105.464 67.9622 105.21 67.7476 104.92 67.7718L84.5773 69.4917C84.4564 69.5008 84.3506 69.5552 84.266 69.6307L78.6377 74.6514L83.3319 135.238L123.733 132.207L130.271 126.878C130.326 126.847 130.374 126.808 130.416 126.76C130.507 126.654 130.549 126.515 130.537 126.376V126.379ZM104.485 68.869L108.2 112.858C108.224 113.148 108.481 113.363 108.768 113.339L128.24 111.695L129.443 125.947L90.1542 129.265L85.1909 70.5013L104.485 68.872V68.869Z" fill="#202124"></path>
      <path d="M39.0828 135.093L34.0288 75.2801L76.1078 71.7255L77.335 86.2434L55.5141 88.0873L56.4028 98.6063L75.0075 97.0345L76.2347 111.552L57.63 113.124L59.3409 133.379L39.0828 135.09V135.093Z" fill="#428EFF"></path>
      <path d="M77.8607 86.2012L76.6335 71.6832C76.6093 71.393 76.3554 71.1784 76.0652 71.2025L33.9863 74.7572C33.8503 74.7693 33.7324 74.8328 33.6477 74.9235L27.8623 79.9805L32.5566 140.567L53.1623 138.971L59.6641 133.797C59.7971 133.691 59.8787 133.521 59.8636 133.34L58.5669 118.006L70.9055 116.918L76.57 111.964H76.564C76.5882 111.945 76.6124 111.921 76.6305 111.897C76.7212 111.791 76.7635 111.652 76.7514 111.513L75.5242 96.9952C75.5 96.7051 75.2431 96.4934 74.9559 96.5146L56.8772 98.0411L56.4479 92.966L72.0118 91.5937L77.6431 86.6697C77.6763 86.6455 77.7066 86.6183 77.7307 86.5881C77.8214 86.4823 77.8638 86.3432 77.8517 86.2042L77.8607 86.2012ZM74.5267 97.6058L75.6632 111.075L57.5845 112.601C57.2943 112.626 57.0797 112.88 57.1039 113.17L58.7694 132.902L39.5632 134.525L34.5999 75.7608L75.63 72.2938L76.7665 85.7629L55.4686 87.5614C55.1784 87.5856 54.9638 87.8395 54.988 88.1296L55.8767 98.6486C55.8887 98.7877 55.9552 98.9177 56.061 99.0053C56.1668 99.096 56.3059 99.1383 56.4449 99.1262L74.5237 97.5998L74.5267 97.6058Z" fill="#202124"></path>
    </svg>